<?xml version="1.0" encoding="UTF-8"?><svg xmlns="http://www.w3.org/2000/svg" viewBox="0 0 2983.71 840.73"><defs><style>.d{fill:#fff;}</style></defs><g id="a"/><g id="b"><g id="c"><g><polygon points="0 0 .26 840.73 2983.71 840.73 2983.71 .43 0 0"/><polygon class="d" points="2699.83 55.31 2751.51 55.31 2751.51 63 2729.94 63 2729.94 120.5 2721.31 120.5 2721.31 63 2699.83 63 2699.83 55.31"/><polygon class="d" points="891.91 654.92 578.82 654.92 578.82 178.68 831.23 178.68 736.16 273.75 683.19 273.75 683.19 369.41 839.73 369.41 839.73 464.48 683.19 464.48 683.19 560.14 891.91 560.14 891.91 654.92"/><polygon class="d" points="1413.18 654.34 1261.79 455.36 1261.79 654.34 1157.75 654.34 1157.75 179.85 1261.79 179.85 1261.79 389.72 1394.82 179.85 1515.29 179.85 1361.65 420.92 1540.1 654.34 1413.18 654.34"/><polygon class="d" points="1901.06 654.92 1587.97 654.92 1587.97 178.68 1839.51 178.68 1744.43 273.75 1692.33 273.75 1692.33 369.41 1848.87 369.41 1848.87 464.48 1692.33 464.48 1692.33 560.14 1901.06 560.14 1901.06 654.92"/><polygon class="d" points="2167.17 654.34 2062.48 654.34 2062.48 274.34 1934.61 274.34 1934.61 274.18 2028.93 179.85 2294.72 179.85 2294.72 274.34 2167.17 274.34 2167.17 654.34"/><path class="d" d="M2729.31,587.52c-51.54,46.7-113.58,70.05-186.18,70.05-72.8-.2-134.83-23.55-186.18-70.05-51.54-47.1-77.31-103.81-77.31-170.13s25.77-122.94,77.31-170.42c51.73-47.29,113.83-70.94,186.18-70.94,33.75,0,65.17,5.36,94.44,15.65l-81.16,81.15c-4.38-.31-8.78-.55-13.29-.55-44,0-81.3,14.13-111.77,42.39-30.92,28.65-46.38,62.7-46.38,102.14s15.46,73.88,46.38,102.14c30.73,28.06,67.97,42.09,111.77,42.09s80.33-14.03,111.45-42.09c31.12-28.06,46.71-62.11,46.71-102.14s-15.59-73.68-46.71-102.14c-2.45-2.24-5.01-4.23-7.54-6.3l70.9-70.9c3.8,3.14,7.67,6.12,11.36,9.5,51.73,47.29,77.63,104.1,77.63,170.42s-25.9,123.23-77.63,170.13Z"/><path class="d" d="M2822.31,120.5h-8.32v-54.57l-18.94,54.57h-7.78l-18.86-55.5v55.5h-8.32V55.31h12.99l15.43,46.16c1.42,4.3,2.46,7.52,3.11,9.65,.74-2.37,1.9-5.85,3.47-10.45l15.61-45.36h11.61V120.5Z"/><path class="d" d="M481.62,399.43c-9.79-8.53-27.25-18.35-39.94-24.13,9.6-15.6,21.58-42.88,21.58-65.64,0-34.73-13.72-64.85-41.23-90.36-28.54-26.3-62.94-39.44-103.07-39.44H174.01v474.48h192.94c44.9,0,83.1-14.72,114.67-44.15,31.57-29.04,47.35-64.17,47.35-105.37s-15.78-76.14-47.35-105.38Zm-203.57-126.86h40.91c24.29,0,43.81,18.94,43.81,40.91,0,24.14-21.07,41.01-45.74,43.56-16.75,1.18-29.76,1.96-38.98,2.36v-86.83Zm88.9,288.75h-88.9v-115.09c31.24,0,57.98-1.28,88.9,.29,32.15,1.96,60.23,26.78,60.23,58.28s-26.35,56.51-60.23,56.51Z"/></g></g></g></svg>